<?xml version="1.0" encoding="UTF-8" standalone="no"?>
<!-- Created with Inkscape (http://www.inkscape.org/) -->

<svg
   xmlns:dc="http://purl.org/dc/elements/1.1/"
   xmlns:cc="http://creativecommons.org/ns#"
   xmlns:rdf="http://www.w3.org/1999/02/22-rdf-syntax-ns#"
   xmlns:svg="http://www.w3.org/2000/svg"
   xmlns="http://www.w3.org/2000/svg"
   xmlns:xlink="http://www.w3.org/1999/xlink"
   xmlns:sodipodi="http://sodipodi.sourceforge.net/DTD/sodipodi-0.dtd"
   xmlns:inkscape="http://www.inkscape.org/namespaces/inkscape"
   width="423.99823"
   height="121.047"
   id="svg3048"
   version="1.1"
   inkscape:version="0.48.4 r9939"
   sodipodi:docname="New document 2">
  <defs
     id="defs3050">
    <linearGradient
       gradientTransform="translate(231.42768,326.6854)"
       id="SVGID_5_"
       gradientUnits="userSpaceOnUse"
       x1="129.1987"
       y1="115.5791"
       x2="129.1987"
       y2="204.4863">
      <stop
         offset="0.0056"
         style="stop-color:#494748"
         id="stop35" />
      <stop
         offset="1"
         style="stop-color:#000000"
         id="stop37" />
    </linearGradient>
    <linearGradient
       gradientTransform="translate(231.42768,326.6854)"
       id="SVGID_4_"
       gradientUnits="userSpaceOnUse"
       x1="311.2847"
       y1="115.7188"
       x2="311.2847"
       y2="165.2822">
      <stop
         offset="0.0056"
         style="stop-color:#494748"
         id="stop28" />
      <stop
         offset="1"
         style="stop-color:#000000"
         id="stop30" />
    </linearGradient>
    <linearGradient
       gradientTransform="translate(231.42768,326.6854)"
       id="SVGID_3_"
       gradientUnits="userSpaceOnUse"
       x1="43.9897"
       y1="115.4395"
       x2="43.9897"
       y2="165.2314">
      <stop
         offset="0.0056"
         style="stop-color:#494748"
         id="stop21" />
      <stop
         offset="1"
         style="stop-color:#000000"
         id="stop23" />
    </linearGradient>
    <linearGradient
       id="SVGID_2_"
       gradientUnits="userSpaceOnUse"
       x1="229.61819"
       y1="116.208"
       x2="229.61819"
       y2="164.46291">
      <stop
         offset="0.0056"
         style="stop-color:#494748"
         id="stop14" />
      <stop
         offset="1"
         style="stop-color:#000000"
         id="stop16" />
    </linearGradient>
    <linearGradient
       gradientTransform="translate(231.42768,326.6854)"
       y2="164.46291"
       x2="229.61819"
       y1="116.208"
       x1="229.61819"
       gradientUnits="userSpaceOnUse"
       id="linearGradient3046"
       xlink:href="#SVGID_2_"
       inkscape:collect="always" />
  </defs>
  <sodipodi:namedview
     id="base"
     pagecolor="#ffffff"
     bordercolor="#666666"
     borderopacity="1.0"
     inkscape:pageopacity="0.0"
     inkscape:pageshadow="2"
     inkscape:zoom="0.35"
     inkscape:cx="175.57053"
     inkscape:cy="6.8092262"
     inkscape:document-units="px"
     inkscape:current-layer="layer1"
     showgrid="false"
     fit-margin-top="24"
     fit-margin-left="32"
     fit-margin-right="32"
     fit-margin-bottom="8"
     inkscape:window-width="1918"
     inkscape:window-height="1033"
     inkscape:window-x="0"
     inkscape:window-y="25"
     inkscape:window-maximized="1" />
  <metadata
     id="metadata3053">
    <rdf:RDF>
      <cc:Work
         rdf:about="">
        <dc:format>image/svg+xml</dc:format>
        <dc:type
           rdf:resource="http://purl.org/dc/dcmitype/StillImage" />
        <dc:title></dc:title>
      </cc:Work>
    </rdf:RDF>
  </metadata>
  <g
     inkscape:label="Layer 1"
     inkscape:groupmode="layer"
     id="layer1"
     transform="translate(-199.42946,-418.1244)">
    <path
       style="fill:url(#linearGradient3046)"
       inkscape:connector-curvature="0"
       d="m 500.95868,466.1844 c -2.511,7.718 -8.23,13.807 -17.156,18.27 -8.926,4.463 -20.223,6.694 -33.891,6.694 -13.484,0 -23.292,-2.208 -29.43,-6.626 -6.136,-4.415 -7.904,-10.528 -5.299,-18.338 l 7.53,-23.291 h 25.663 l -7.252,23.151 c -0.931,2.883 -1.232,5.278 -0.906,7.183 0.326,1.907 1.046,3.417 2.162,4.533 1.394,1.113 2.95,1.88 4.672,2.299 1.72,0.419 3.788,0.629 6.207,0.629 2.417,0 4.742,-0.255 6.974,-0.769 2.231,-0.51 4.275,-1.323 6.138,-2.438 1.858,-1.116 3.508,-2.602 4.951,-4.463 1.44,-1.859 2.626,-4.186 3.557,-6.974 l 7.532,-23.151 h 25.663 l -7.115,23.291 z"
       id="path18" />
    <path
       style="fill:url(#SVGID_3_)"
       inkscape:connector-curvature="0"
       d="m 318.30268,467.0894 c 2.51,-7.717 0.743,-13.808 -5.301,-18.271 -6.044,-4.463 -15.899,-6.694 -29.567,-6.694 -13.483,0 -24.686,2.21 -33.611,6.625 -8.928,4.417 -14.693,10.53 -17.295,18.34 -2.51,7.72 -0.722,13.786 5.37,18.201 6.089,4.418 15.922,6.626 29.498,6.626 13.575,0 24.826,-2.208 33.753,-6.626 8.924,-4.415 14.642,-10.481 17.153,-18.201 z m -26.082,0.14 c -0.931,2.978 -2.069,5.3 -3.417,6.974 -1.349,1.675 -3.046,3.116 -5.09,4.323 -1.768,1.116 -3.765,1.883 -5.997,2.302 -2.232,0.419 -4.463,0.627 -6.696,0.627 -2.697,0 -4.999,-0.23 -6.903,-0.696 -1.907,-0.465 -3.417,-1.256 -4.533,-2.371 -1.21,-1.116 -1.906,-2.626 -2.092,-4.533 -0.188,-1.904 0.14,-4.114 0.977,-6.625 0.929,-2.88 2.161,-5.275 3.696,-7.183 1.534,-1.904 3.229,-3.417 5.09,-4.533 2.138,-1.115 4.206,-1.882 6.207,-2.301 1.999,-0.419 4.207,-0.627 6.625,-0.627 2.416,0 4.603,0.257 6.555,0.767 1.953,0.512 3.486,1.325 4.603,2.44 1.115,1.116 1.789,2.605 2.021,4.463 0.231,1.86 -0.117,4.185 -1.046,6.973 z"
       id="path25" />
    <path
       style="fill:url(#SVGID_4_)"
       inkscape:connector-curvature="0"
       d="m 541.56768,453.4924 c 2.928,-0.698 9.041,-1.046 18.339,-1.046 4.833,0 9.506,0.487 14.018,1.465 4.508,0.976 9.042,2.209 13.598,3.696 l 3.905,-11.856 c -2.698,-0.744 -6.625,-1.487 -11.787,-2.231 -5.159,-0.744 -10.669,-1.116 -16.526,-1.116 -17.574,0 -30.405,1.513 -38.493,4.533 -8.089,3.022 -12.879,6.812 -14.366,11.366 -1.115,3.44 -0.348,6.346 2.302,8.717 2.65,2.371 7.322,4.115 14.016,5.229 2.511,0.467 6.624,0.838 12.343,1.117 5.718,0.279 9.46,0.557 11.228,0.836 3.717,0.373 6.205,0.837 7.461,1.396 1.254,0.558 1.695,1.394 1.325,2.511 -0.467,1.303 -1.976,2.279 -4.533,2.928 -2.559,0.652 -6.3,0.977 -11.227,0.977 -0.77,0 -1.513,-0.003 -2.241,-0.007 -1.846,-0.101 -3.858,-0.272 -5.791,-0.476 -2.06,-0.22 -4.118,-0.485 -6.162,-0.795 -4.089,-0.62 -8.132,-1.419 -12.058,-2.439 -3.921,-1.022 -7.734,-2.267 -11.26,-3.813 -0.474,-0.208 -0.932,-0.433 -1.394,-0.654 -2.476,3.979 -5.905,7.451 -10.27,10.396 2.259,1.085 4.539,1.976 6.807,2.742 4.52,1.506 9.034,2.52 13.525,3.266 4.494,0.741 8.969,1.203 13.431,1.472 2.231,0.133 4.459,0.215 6.691,0.248 1.966,0.026 3.882,0.02 5.902,-0.045 12.216,-0.072 22.318,-1.53 30.294,-4.386 8.18,-2.929 13.062,-6.81 14.644,-11.645 1.116,-3.349 0.441,-6.138 -2.021,-8.369 -2.466,-2.231 -6.813,-3.857 -13.041,-4.882 -2.883,-0.371 -5.768,-0.719 -8.647,-1.046 -2.884,-0.324 -5.533,-0.628 -7.951,-0.906 -9.577,-0.65 -14.924,-1.255 -16.039,-1.813 -1.116,-0.558 -1.488,-1.394 -1.116,-2.511 0.467,-1.209 2.164,-2.163 5.094,-2.859 z"
       id="path32" />
    <path
       style="fill:url(#SVGID_5_)"
       inkscape:connector-curvature="0"
       d="m 404.26568,448.8894 c -6.091,-4.415 -15.924,-6.625 -29.499,-6.625 -13.577,0 -24.826,2.21 -33.751,6.625 -8.926,4.417 -14.4,10.415 -16.911,18.131 l -0.105,0.349 -12.692,39.19 c -5.26,17.631 17.526,24.612 17.526,24.612 l 7.58,-24.612 0.656,-2.106 c 0.592,-1.982 1.192,-3.964 1.781,-5.948 l 1.686,-5.531 c 0.603,-1.832 1.207,-3.662 1.85,-5.481 l 3.979,-10.875 1.993,-5.436 1.429,-3.718 c 0.051,-0.172 0.099,-0.339 0.155,-0.514 0.836,-2.509 1.953,-4.718 3.347,-6.624 1.396,-1.904 3.069,-3.417 5.021,-4.533 1.859,-1.115 3.882,-1.904 6.067,-2.371 2.183,-0.464 4.625,-0.696 7.322,-0.696 2.231,0 4.325,0.208 6.277,0.627 1.952,0.419 3.438,1.186 4.463,2.301 1.301,1.209 2.068,2.65 2.3,4.323 0.231,1.675 -0.117,3.999 -1.046,6.974 -0.931,2.79 -2.116,5.116 -3.557,6.974 -1.442,1.862 -3.091,3.348 -4.951,4.464 -1.861,1.115 -3.905,1.931 -6.136,2.44 -2.231,0.512 -4.558,0.767 -6.973,0.767 -2.419,0 -4.487,-0.208 -6.207,-0.627 -1.721,-0.419 -3.326,-1.186 -4.812,-2.302 -0.112,-0.112 -0.201,-0.247 -0.305,-0.366 l -3.674,10.658 c -0.206,0.613 -0.403,1.228 -0.601,1.842 3.479,0.708 7.507,1.13 12.111,1.256 13.668,0 24.965,-2.231 33.893,-6.694 8.926,-4.464 14.643,-10.552 17.154,-18.271 2.511,-7.719 0.718,-13.786 -5.37,-18.203 z"
       id="path39" />
  </g>
</svg>
