<?xml version="1.0" encoding="UTF-8" standalone="no"?>
<svg
   xmlns:dc="http://purl.org/dc/elements/1.1/"
   xmlns:cc="http://creativecommons.org/ns#"
   xmlns:rdf="http://www.w3.org/1999/02/22-rdf-syntax-ns#"
   xmlns:svg="http://www.w3.org/2000/svg"
   xmlns="http://www.w3.org/2000/svg"
   xmlns:sodipodi="http://sodipodi.sourceforge.net/DTD/sodipodi-0.dtd"
   xmlns:inkscape="http://www.inkscape.org/namespaces/inkscape"
   version="1.0"
   width="226"
   height="226"
   viewBox="0 0 226.00001 226"
   id="svg2"
   xml:space="preserve"
   style="overflow:visible"
   inkscape:version="0.48.4 r9939"
   sodipodi:docname="vinyl_highlights.svg"><metadata
     id="metadata35"><rdf:RDF><cc:Work
         rdf:about=""><dc:format>image/svg+xml</dc:format><dc:type
           rdf:resource="http://purl.org/dc/dcmitype/StillImage" /><dc:title /></cc:Work></rdf:RDF></metadata><defs
     id="defs33" /><sodipodi:namedview
     pagecolor="#ffffff"
     bordercolor="#666666"
     borderopacity="1"
     objecttolerance="10"
     gridtolerance="10"
     guidetolerance="10"
     inkscape:pageopacity="0"
     inkscape:pageshadow="2"
     inkscape:window-width="1918"
     inkscape:window-height="1033"
     id="namedview31"
     showgrid="false"
     inkscape:zoom="2.9576751"
     inkscape:cx="115.42881"
     inkscape:cy="112.8435"
     inkscape:window-x="0"
     inkscape:window-y="25"
     inkscape:window-maximized="1"
     inkscape:current-layer="svg2" /><path
     inkscape:connector-curvature="0"
     style="fill:none;stroke:#ffffff;stroke-width:2.5007;stroke-linecap:round;stroke-linejoin:round"
     id="path23"
     d="m 20.097,66.529004 c 10.823,-21.487 28.895,-38.693 51.004,-48.415" /><path
     inkscape:connector-curvature="0"
     style="fill:none;stroke:#ffffff;stroke-width:2.5007;stroke-linecap:round;stroke-linejoin:round"
     id="path27"
     d="m 207.882,154.892 c -10.452,23.771 -29.559,42.877 -53.335,53.329" /><path
     inkscape:connector-curvature="0"
     style="fill:none;stroke:#ffffff;stroke-width:2.5007;stroke-linecap:round;stroke-linejoin:round"
     id="path31"
     d="m 26.954,65.611004 c 9.794,-17.665 24.883,-31.985 43.118,-40.829" /><path
     inkscape:connector-curvature="0"
     style="fill:none;stroke:#ffffff;stroke-width:2.5007;stroke-linecap:round;stroke-linejoin:round"
     id="path35"
     d="m 201.246,155.856 c -9.625,19.901 -25.782,36.058 -45.683,45.696" /><path
     inkscape:connector-curvature="0"
     style="fill:none;stroke:#ffffff;stroke-width:2.5007;stroke-linecap:round;stroke-linejoin:round"
     id="path41"
     d="m 31.278,68.405004 c 9.515,-17.3 24.375,-31.246 42.349,-39.614" /><path
     inkscape:connector-curvature="0"
     style="fill:none;stroke:#ffffff;stroke-width:2.5007;stroke-linecap:round;stroke-linejoin:round"
     id="path45"
     d="m 197.293,152.183 c -9.156,19.784 -25.053,35.804 -44.745,45.11" /><path
     inkscape:connector-curvature="0"
     style="fill:none;stroke:#ffffff;stroke-width:2.5007;stroke-linecap:round;stroke-linejoin:round"
     id="path49"
     d="m 194.591,145.358 c -7.587,19.257 -21.783,35.187 -39.797,45" /><path
     inkscape:connector-curvature="0"
     style="fill:none;stroke:#ffffff;stroke-width:2.5007;stroke-linecap:round;stroke-linejoin:round"
     id="path53"
     d="m 34.828,72.729004 c 8.355,-16.082 21.529,-29.25 37.608,-37.595" /><path
     inkscape:connector-curvature="0"
     style="fill:none;stroke:#ffffff;stroke-width:2.5007;stroke-linecap:round;stroke-linejoin:round"
     id="path57"
     d="m 188.86,146.205 c -7.666,17.616 -21.282,32.054 -38.312,40.767" /><path
     inkscape:connector-curvature="0"
     style="fill:none;stroke:#ffffff;stroke-width:2.5007;stroke-linecap:round;stroke-linejoin:round"
     id="path61"
     d="m 40.22,73.185004 c 8.303,-15.05 21.152,-27.241 36.689,-34.73" /><path
     inkscape:connector-curvature="0"
     style="fill:none;stroke:#ffffff;stroke-width:2.5007;stroke-linecap:round;stroke-linejoin:round"
     id="path65"
     d="m 42.851,79.785004 c 6.779,-14.2 17.759,-26.01 31.324,-33.834" /><path
     inkscape:connector-curvature="0"
     style="fill:none;stroke:#ffffff;stroke-width:2.5007;stroke-linecap:round;stroke-linejoin:round"
     id="path69"
     d="m 176.435,146.192 c -6.18,11.878 -15.591,21.803 -27.065,28.621" /><path
     inkscape:connector-curvature="0"
     style="fill:none;stroke:#ffffff;stroke-width:2.5007;stroke-linecap:round;stroke-linejoin:round"
     id="path73"
     d="m 50.691,77.477004 c 6.825,-11.859 16.945,-21.582 29.116,-27.915" /><path
     inkscape:connector-curvature="0"
     style="fill:none;stroke:#ffffff;stroke-width:2.5007;stroke-linecap:round;stroke-linejoin:round"
     id="path77"
     d="m 169.121,147.292 c -6.206,10.204 -15.102,18.586 -25.704,24.16" /><path
     inkscape:connector-curvature="0"
     style="fill:none;stroke:#ffffff;stroke-width:2.5007;stroke-linecap:round;stroke-linejoin:round"
     id="path81"
     d="m 57.354,77.759004 c 6.532,-10.221 15.818,-18.521 26.804,-23.848" /><path
     inkscape:connector-curvature="0"
     style="fill:none;stroke:#ffffff;stroke-width:2.5007;stroke-linecap:round;stroke-linejoin:round"
     id="path85"
     d="m 165.924,141.542 c -4.956,9.247 -12.263,17.055 -21.119,22.623" /><path
     inkscape:connector-curvature="0"
     style="fill:none;stroke:#ffffff;stroke-width:2.5007;stroke-linecap:round;stroke-linejoin:round"
     id="path89"
     d="m 62.042,80.869004 c 5.49,-8.619 13.103,-15.743 22.109,-20.631" /><path
     inkscape:connector-curvature="0"
     style="fill:none;stroke:#ffffff;stroke-width:2.5007;stroke-linecap:round;stroke-linejoin:round"
     id="path93"
     d="m 162.674,136.886 c -4.688,9.839 -12.21,18.071 -21.503,23.646" /><path
     inkscape:connector-curvature="0"
     style="fill:none;stroke:#ffffff;stroke-width:2.5007;stroke-linecap:round;stroke-linejoin:round"
     id="path97"
     d="m 64.289,86.883004 c 5.105,-9.407 12.861,-17.167 22.265,-22.272" /><path
     inkscape:connector-curvature="0"
     style="fill:none;stroke:#ffffff;stroke-width:2.5007;stroke-linecap:round;stroke-linejoin:round"
     id="path101"
     d="m 156.897,135.876 c -4.337,8.4 -11.005,15.401 -19.152,20.142" /><path
     inkscape:connector-curvature="0"
     style="fill:none;stroke:#ffffff;stroke-width:2.5007;stroke-linecap:round;stroke-linejoin:round"
     id="path105"
     d="m 69.974,88.245004 c 5.229,-8.974 13.2,-16.157 22.76,-20.406" /><path
     inkscape:connector-curvature="0"
     style="fill:none;stroke:#ffffff;stroke-width:2.5007;stroke-linecap:round;stroke-linejoin:round"
     id="path109"
     d="m 154.065,130.12 c -4.11,9.957 -11.709,18.104 -21.283,22.904" /><path
     inkscape:connector-curvature="0"
     style="fill:none;stroke:#ffffff;stroke-width:2.5007;stroke-linecap:round;stroke-linejoin:round"
     id="path113"
     d="m 73.236,92.689004 c 4.24,-8.186 10.941,-14.89 19.127,-19.13" /><path
     inkscape:connector-curvature="0"
     style="fill:none;stroke:#ffffff;stroke-width:2.5007;stroke-linecap:round;stroke-linejoin:round"
     id="path117"
     d="m 185.226,140.957 c -6.082,15.844 -17.219,29.175 -31.428,38.03" /></svg>