<?xml version="1.0" encoding="UTF-8" standalone="no"?>
<svg
   xmlns:dc="http://purl.org/dc/elements/1.1/"
   xmlns:cc="http://creativecommons.org/ns#"
   xmlns:rdf="http://www.w3.org/1999/02/22-rdf-syntax-ns#"
   xmlns:svg="http://www.w3.org/2000/svg"
   xmlns="http://www.w3.org/2000/svg"
   xmlns:xlink="http://www.w3.org/1999/xlink"
   xmlns:sodipodi="http://sodipodi.sourceforge.net/DTD/sodipodi-0.dtd"
   xmlns:inkscape="http://www.inkscape.org/namespaces/inkscape"
   version="1.0"
   width="226"
   height="226"
   viewBox="0 0 226.00001 226"
   id="svg2"
   xml:space="preserve"
   style="overflow:visible"
   inkscape:version="0.48.4 r9939"
   sodipodi:docname="vinyl_disc.svg"><metadata
     id="metadata3214"><rdf:RDF><cc:Work
         rdf:about=""><dc:format>image/svg+xml</dc:format><dc:type
           rdf:resource="http://purl.org/dc/dcmitype/StillImage" /><dc:title /></cc:Work></rdf:RDF></metadata><defs
     id="defs3212"><linearGradient
       gradientTransform="translate(214.0386,447.66641)"
       y2="9.9475983e-14"
       x2="194.53169"
       y1="95.107399"
       x1="194.53169"
       gradientUnits="userSpaceOnUse"
       id="linearGradient3190"
       xlink:href="#SVGID_1_"
       inkscape:collect="always" /><linearGradient
       id="SVGID_1_"
       gradientUnits="userSpaceOnUse"
       x1="194.53169"
       y1="95.107399"
       x2="194.53169"
       y2="9.9475983e-14"><stop
         offset="0.0056"
         style="stop-color:#8E8E8E"
         id="stop7" /><stop
         offset="1"
         style="stop-color:#B5B5B5"
         id="stop9" /></linearGradient><linearGradient
       y2="9.9475983e-14"
       x2="194.53169"
       y1="95.107399"
       x1="194.53169"
       gradientTransform="matrix(0.43001988,0,0,0.43001988,30.385889,95.672927)"
       gradientUnits="userSpaceOnUse"
       id="linearGradient3369"
       xlink:href="#SVGID_1_"
       inkscape:collect="always" /></defs><sodipodi:namedview
     pagecolor="#ffffff"
     bordercolor="#666666"
     borderopacity="1"
     objecttolerance="10"
     gridtolerance="10"
     guidetolerance="10"
     inkscape:pageopacity="0"
     inkscape:pageshadow="2"
     inkscape:window-width="1918"
     inkscape:window-height="1033"
     id="namedview3210"
     showgrid="false"
     inkscape:zoom="4.1827842"
     inkscape:cx="113.31815"
     inkscape:cy="112.8435"
     inkscape:window-x="0"
     inkscape:window-y="25"
     inkscape:window-maximized="1"
     inkscape:current-layer="svg2" /><path
     inkscape:connector-curvature="0"
     id="path15"
     d="m 225.68,113.16 c 0,62.324 -50.515,112.839 -112.844,112.839 C 50.522,226 0,175.484 0,113.16 0,50.838004 50.522,0.31300355 112.836,0.31300355 175.165,0.31300355 225.68,50.838004 225.68,113.16 z" /><path
     inkscape:connector-curvature="0"
     style="fill:#ffffff"
     id="path17"
     d="m 151.792,113.16 c 0,21.511 -17.439,38.958 -38.956,38.958 -21.515,0 -38.955,-17.446 -38.955,-38.958 0,-21.516996 17.44,-38.955996 38.955,-38.955996 21.517,0 38.956,17.44 38.956,38.955996 z" /><path
     inkscape:connector-curvature="0"
     id="path119"
     d="m 116.866,113.16 c 0,2.227 -1.803,4.032 -4.03,4.032 -2.219,0 -4.029,-1.805 -4.029,-4.032 0,-2.228 1.81,-4.031 4.029,-4.031 2.227,0 4.03,1.804 4.03,4.031 z" /><path
     style="fill:url(#linearGradient3369)"
     inkscape:connector-curvature="0"
     d="m 141.05367,101.69148 c -3.18731,-2.653217 -8.09384,-4.429629 -14.70754,-5.335682 l -4.86009,15.452762 c -0.10492,0.56676 -0.28552,1.21051 -0.56547,1.95229 -0.49581,1.23974 -1.09311,2.26104 -1.7949,3.06476 -0.70265,0.80584 -1.48916,1.43411 -2.36038,1.89208 -0.87208,0.45539 -1.81984,0.76974 -2.84415,0.94303 -1.02431,0.17201 -2.08431,0.22619 -3.17914,0.16254 -1.09612,-0.0637 -2.02841,-0.21286 -2.79556,-0.44808 -0.76802,-0.23478 -1.47411,-0.62438 -2.11785,-1.16965 -0.47603,-0.53537 -0.75297,-1.23759 -0.82865,-2.10795 -0.0761,-0.87036 0.1346,-1.9467 0.63256,-3.22903 0.44507,-1.1146 1.0084,-2.08644 1.69127,-2.91166 0.68244,-0.82607 1.48056,-1.46679 2.39307,-1.9209 0.87164,-0.45539 1.80866,-0.76027 2.81189,-0.91379 1.00066,-0.15223 2.11356,-0.19264 3.33524,-0.1217 1.0114,0.0598 1.95315,0.20857 2.82695,0.45067 0.41454,0.11395 0.77748,0.2636 1.09311,0.44421 l 3.73128,-11.864677 c -0.9211,-0.08686 -1.86327,-0.162977 -2.842,-0.219309 -9.41787,-0.549996 -17.33325,0.537954 -23.749583,3.25783 -6.415037,2.722026 -10.692444,6.757766 -12.828783,12.106776 -0.64116,1.64009 -0.985606,3.18559 -1.036348,4.63776 l -0.0043,-0.002 c -0.613208,10.51958 6.147134,16.44612 10.323488,19.08128 1.675787,1.12192 3.165805,1.67751 3.165805,1.67751 l 1.914019,-6.11703 0.565906,-1.50335 c 2.519496,0.47646 5.321506,0.808 8.416786,0.98819 9.48323,0.553 17.43258,-0.52979 23.84804,-3.25268 6.41418,-2.71988 10.6559,-6.72465 12.72472,-12.01562 2.06668,-5.28709 1.08107,-9.61395 -2.95939,-12.97842 z"
     id="path11" /></svg>